<mxfile host="www.draw.io" modified="2020-01-10T03:37:46.408Z" agent="Mozilla/5.0 (X11; Linux x86_64) AppleWebKit/537.36 (KHTML, like Gecko) Chrome/78.0.3904.108 Safari/537.36" etag="YJoMZkJwlVdNGcfWHCZm" version="12.5.1" type="github">
  <diagram id="ADWW6KA9A3b437raw59y" name="Page-1">
    <mxGraphModel dx="1830" dy="553" grid="1" gridSize="10" guides="1" tooltips="1" connect="1" arrows="1" fold="1" page="1" pageScale="1" pageWidth="850" pageHeight="1100" math="0" shadow="0">
      <root>
        <mxCell id="0"/>
        <mxCell id="1" parent="0"/>
        <mxCell id="qk5S9nWQlCDxr0NH0Po0-1" value="读者信息" style="rounded=0;whiteSpace=wrap;html=1;" parent="1" vertex="1">
          <mxGeometry x="72.5" y="160" width="90" height="40" as="geometry"/>
        </mxCell>
        <mxCell id="qk5S9nWQlCDxr0NH0Po0-3" value="书本" style="rounded=0;whiteSpace=wrap;html=1;" parent="1" vertex="1">
          <mxGeometry x="390" y="160" width="90" height="40" as="geometry"/>
        </mxCell>
        <mxCell id="qk5S9nWQlCDxr0NH0Po0-5" value="管理员" style="rounded=0;whiteSpace=wrap;html=1;" parent="1" vertex="1">
          <mxGeometry x="680" y="160" width="90" height="40" as="geometry"/>
        </mxCell>
        <mxCell id="qk5S9nWQlCDxr0NH0Po0-6" value="读者姓名" style="ellipse;whiteSpace=wrap;html=1;" parent="1" vertex="1">
          <mxGeometry x="25" y="60" width="75" height="50" as="geometry"/>
        </mxCell>
        <mxCell id="qk5S9nWQlCDxr0NH0Po0-7" value="读者密码" style="ellipse;whiteSpace=wrap;html=1;" parent="1" vertex="1">
          <mxGeometry x="-20" y="105" width="75" height="50" as="geometry"/>
        </mxCell>
        <mxCell id="qk5S9nWQlCDxr0NH0Po0-8" value="读者编号" style="ellipse;whiteSpace=wrap;html=1;" parent="1" vertex="1">
          <mxGeometry x="-60" y="155" width="75" height="50" as="geometry"/>
        </mxCell>
        <mxCell id="qk5S9nWQlCDxr0NH0Po0-9" value="读者性别" style="ellipse;whiteSpace=wrap;html=1;" parent="1" vertex="1">
          <mxGeometry x="80" y="20" width="75" height="50" as="geometry"/>
        </mxCell>
        <mxCell id="qk5S9nWQlCDxr0NH0Po0-10" value="读者邮箱" style="ellipse;whiteSpace=wrap;html=1;" parent="1" vertex="1">
          <mxGeometry x="140" y="55" width="75" height="50" as="geometry"/>
        </mxCell>
        <mxCell id="qk5S9nWQlCDxr0NH0Po0-11" value="读者手机号" style="ellipse;whiteSpace=wrap;html=1;" parent="1" vertex="1">
          <mxGeometry x="180" y="105" width="75" height="50" as="geometry"/>
        </mxCell>
        <mxCell id="qk5S9nWQlCDxr0NH0Po0-13" value="读者备注" style="ellipse;whiteSpace=wrap;html=1;" parent="1" vertex="1">
          <mxGeometry x="210" y="155" width="75" height="50" as="geometry"/>
        </mxCell>
        <mxCell id="qk5S9nWQlCDxr0NH0Po0-14" value="读者种类" style="ellipse;whiteSpace=wrap;html=1;" parent="1" vertex="1">
          <mxGeometry x="80" y="220" width="75" height="50" as="geometry"/>
        </mxCell>
        <mxCell id="qk5S9nWQlCDxr0NH0Po0-15" value="书本种类" style="ellipse;whiteSpace=wrap;html=1;" parent="1" vertex="1">
          <mxGeometry x="397.5" y="220" width="75" height="50" as="geometry"/>
        </mxCell>
        <mxCell id="qk5S9nWQlCDxr0NH0Po0-19" value="管理员编号" style="ellipse;whiteSpace=wrap;html=1;" parent="1" vertex="1">
          <mxGeometry x="600" y="105" width="75" height="50" as="geometry"/>
        </mxCell>
        <mxCell id="qk5S9nWQlCDxr0NH0Po0-20" value="管理员密码" style="ellipse;whiteSpace=wrap;html=1;" parent="1" vertex="1">
          <mxGeometry x="770" y="105" width="75" height="50" as="geometry"/>
        </mxCell>
        <mxCell id="qk5S9nWQlCDxr0NH0Po0-25" value="" style="endArrow=none;html=1;entryX=1;entryY=1;entryDx=0;entryDy=0;exitX=0.5;exitY=0;exitDx=0;exitDy=0;" parent="1" source="qk5S9nWQlCDxr0NH0Po0-5" target="qk5S9nWQlCDxr0NH0Po0-19" edge="1">
          <mxGeometry width="50" height="50" relative="1" as="geometry">
            <mxPoint x="-60" y="340" as="sourcePoint"/>
            <mxPoint x="-10" y="290" as="targetPoint"/>
          </mxGeometry>
        </mxCell>
        <mxCell id="qk5S9nWQlCDxr0NH0Po0-26" value="" style="endArrow=none;html=1;entryX=0;entryY=1;entryDx=0;entryDy=0;exitX=0.5;exitY=0;exitDx=0;exitDy=0;" parent="1" source="qk5S9nWQlCDxr0NH0Po0-5" target="qk5S9nWQlCDxr0NH0Po0-20" edge="1">
          <mxGeometry width="50" height="50" relative="1" as="geometry">
            <mxPoint x="735" y="170" as="sourcePoint"/>
            <mxPoint x="673.837948014786" y="157.79591082080128" as="targetPoint"/>
          </mxGeometry>
        </mxCell>
        <mxCell id="qk5S9nWQlCDxr0NH0Po0-28" value="" style="endArrow=none;html=1;entryX=0.5;entryY=1;entryDx=0;entryDy=0;exitX=0.5;exitY=0;exitDx=0;exitDy=0;" parent="1" source="qk5S9nWQlCDxr0NH0Po0-14" target="qk5S9nWQlCDxr0NH0Po0-1" edge="1">
          <mxGeometry width="50" height="50" relative="1" as="geometry">
            <mxPoint x="-60" y="340" as="sourcePoint"/>
            <mxPoint x="-10" y="290" as="targetPoint"/>
          </mxGeometry>
        </mxCell>
        <mxCell id="qk5S9nWQlCDxr0NH0Po0-29" value="" style="endArrow=none;html=1;entryX=1;entryY=0.5;entryDx=0;entryDy=0;exitX=0;exitY=0.5;exitDx=0;exitDy=0;" parent="1" source="qk5S9nWQlCDxr0NH0Po0-1" target="qk5S9nWQlCDxr0NH0Po0-8" edge="1">
          <mxGeometry width="50" height="50" relative="1" as="geometry">
            <mxPoint x="-60" y="340" as="sourcePoint"/>
            <mxPoint x="-10" y="290" as="targetPoint"/>
          </mxGeometry>
        </mxCell>
        <mxCell id="qk5S9nWQlCDxr0NH0Po0-30" value="" style="endArrow=none;html=1;entryX=0;entryY=0.5;entryDx=0;entryDy=0;exitX=1;exitY=0.5;exitDx=0;exitDy=0;" parent="1" source="qk5S9nWQlCDxr0NH0Po0-1" target="qk5S9nWQlCDxr0NH0Po0-13" edge="1">
          <mxGeometry width="50" height="50" relative="1" as="geometry">
            <mxPoint x="180" y="210" as="sourcePoint"/>
            <mxPoint x="25" y="190" as="targetPoint"/>
          </mxGeometry>
        </mxCell>
        <mxCell id="qk5S9nWQlCDxr0NH0Po0-31" value="" style="endArrow=none;html=1;entryX=1;entryY=1;entryDx=0;entryDy=0;exitX=0;exitY=0;exitDx=0;exitDy=0;" parent="1" source="qk5S9nWQlCDxr0NH0Po0-1" target="qk5S9nWQlCDxr0NH0Po0-7" edge="1">
          <mxGeometry width="50" height="50" relative="1" as="geometry">
            <mxPoint x="92.5" y="200" as="sourcePoint"/>
            <mxPoint x="35" y="200" as="targetPoint"/>
          </mxGeometry>
        </mxCell>
        <mxCell id="qk5S9nWQlCDxr0NH0Po0-32" value="" style="endArrow=none;html=1;entryX=1;entryY=1;entryDx=0;entryDy=0;exitX=0.5;exitY=0;exitDx=0;exitDy=0;" parent="1" source="qk5S9nWQlCDxr0NH0Po0-1" target="qk5S9nWQlCDxr0NH0Po0-6" edge="1">
          <mxGeometry width="50" height="50" relative="1" as="geometry">
            <mxPoint x="102.5" y="210" as="sourcePoint"/>
            <mxPoint x="45" y="210" as="targetPoint"/>
          </mxGeometry>
        </mxCell>
        <mxCell id="qk5S9nWQlCDxr0NH0Po0-33" value="" style="endArrow=none;html=1;entryX=0.06;entryY=0.854;entryDx=0;entryDy=0;exitX=1;exitY=0;exitDx=0;exitDy=0;entryPerimeter=0;" parent="1" source="qk5S9nWQlCDxr0NH0Po0-1" target="qk5S9nWQlCDxr0NH0Po0-11" edge="1">
          <mxGeometry width="50" height="50" relative="1" as="geometry">
            <mxPoint x="112.5" y="220" as="sourcePoint"/>
            <mxPoint x="55" y="220" as="targetPoint"/>
          </mxGeometry>
        </mxCell>
        <mxCell id="qk5S9nWQlCDxr0NH0Po0-34" value="" style="endArrow=none;html=1;entryX=0;entryY=1;entryDx=0;entryDy=0;exitX=0.5;exitY=0;exitDx=0;exitDy=0;" parent="1" source="qk5S9nWQlCDxr0NH0Po0-1" target="qk5S9nWQlCDxr0NH0Po0-10" edge="1">
          <mxGeometry width="50" height="50" relative="1" as="geometry">
            <mxPoint x="122.5" y="230" as="sourcePoint"/>
            <mxPoint x="65" y="230" as="targetPoint"/>
          </mxGeometry>
        </mxCell>
        <mxCell id="qk5S9nWQlCDxr0NH0Po0-35" value="" style="endArrow=none;html=1;entryX=0.5;entryY=1;entryDx=0;entryDy=0;exitX=0.5;exitY=0;exitDx=0;exitDy=0;" parent="1" source="qk5S9nWQlCDxr0NH0Po0-1" target="qk5S9nWQlCDxr0NH0Po0-9" edge="1">
          <mxGeometry width="50" height="50" relative="1" as="geometry">
            <mxPoint x="132.5" y="240" as="sourcePoint"/>
            <mxPoint x="75" y="240" as="targetPoint"/>
          </mxGeometry>
        </mxCell>
        <mxCell id="qk5S9nWQlCDxr0NH0Po0-36" value="" style="endArrow=none;html=1;entryX=0.5;entryY=1;entryDx=0;entryDy=0;" parent="1" source="qk5S9nWQlCDxr0NH0Po0-15" target="qk5S9nWQlCDxr0NH0Po0-3" edge="1">
          <mxGeometry width="50" height="50" relative="1" as="geometry">
            <mxPoint x="142.5" y="250" as="sourcePoint"/>
            <mxPoint x="85" y="250" as="targetPoint"/>
          </mxGeometry>
        </mxCell>
        <mxCell id="qk5S9nWQlCDxr0NH0Po0-37" value="" style="endArrow=none;html=1;entryX=1;entryY=0.5;entryDx=0;entryDy=0;exitX=0;exitY=0.5;exitDx=0;exitDy=0;" parent="1" source="qk5S9nWQlCDxr0NH0Po0-3" target="qk5S9nWQlCDxr0NH0Po0-39" edge="1">
          <mxGeometry width="50" height="50" relative="1" as="geometry">
            <mxPoint x="445" y="230" as="sourcePoint"/>
            <mxPoint x="445" y="210" as="targetPoint"/>
          </mxGeometry>
        </mxCell>
        <mxCell id="qk5S9nWQlCDxr0NH0Po0-39" value="书本编号" style="ellipse;whiteSpace=wrap;html=1;" parent="1" vertex="1">
          <mxGeometry x="290" y="155" width="75" height="50" as="geometry"/>
        </mxCell>
        <mxCell id="qk5S9nWQlCDxr0NH0Po0-40" value="书本姓名" style="ellipse;whiteSpace=wrap;html=1;" parent="1" vertex="1">
          <mxGeometry x="300" y="100" width="75" height="50" as="geometry"/>
        </mxCell>
        <mxCell id="qk5S9nWQlCDxr0NH0Po0-42" value="书本图片" style="ellipse;whiteSpace=wrap;html=1;" parent="1" vertex="1">
          <mxGeometry x="330" y="50" width="75" height="50" as="geometry"/>
        </mxCell>
        <mxCell id="qk5S9nWQlCDxr0NH0Po0-43" value="作者" style="ellipse;whiteSpace=wrap;html=1;" parent="1" vertex="1">
          <mxGeometry x="397.5" y="10" width="75" height="50" as="geometry"/>
        </mxCell>
        <mxCell id="qk5S9nWQlCDxr0NH0Po0-45" value="登记时间" style="ellipse;whiteSpace=wrap;html=1;" parent="1" vertex="1">
          <mxGeometry x="460" y="50" width="75" height="50" as="geometry"/>
        </mxCell>
        <mxCell id="qk5S9nWQlCDxr0NH0Po0-47" value="更新时间" style="ellipse;whiteSpace=wrap;html=1;" parent="1" vertex="1">
          <mxGeometry x="490" y="100" width="75" height="50" as="geometry"/>
        </mxCell>
        <mxCell id="qk5S9nWQlCDxr0NH0Po0-48" value="存放位置" style="ellipse;whiteSpace=wrap;html=1;" parent="1" vertex="1">
          <mxGeometry x="525" y="155" width="75" height="50" as="geometry"/>
        </mxCell>
        <mxCell id="qk5S9nWQlCDxr0NH0Po0-50" value="出版社" style="ellipse;whiteSpace=wrap;html=1;" parent="1" vertex="1">
          <mxGeometry x="490" y="210" width="75" height="50" as="geometry"/>
        </mxCell>
        <mxCell id="qk5S9nWQlCDxr0NH0Po0-51" value="" style="endArrow=none;html=1;exitX=0.845;exitY=1;exitDx=0;exitDy=0;exitPerimeter=0;" parent="1" source="qk5S9nWQlCDxr0NH0Po0-3" target="qk5S9nWQlCDxr0NH0Po0-50" edge="1">
          <mxGeometry width="50" height="50" relative="1" as="geometry">
            <mxPoint x="455" y="240" as="sourcePoint"/>
            <mxPoint x="455" y="220" as="targetPoint"/>
          </mxGeometry>
        </mxCell>
        <mxCell id="qk5S9nWQlCDxr0NH0Po0-52" value="" style="endArrow=none;html=1;entryX=0;entryY=0.5;entryDx=0;entryDy=0;exitX=1;exitY=0.5;exitDx=0;exitDy=0;" parent="1" source="qk5S9nWQlCDxr0NH0Po0-3" target="qk5S9nWQlCDxr0NH0Po0-48" edge="1">
          <mxGeometry width="50" height="50" relative="1" as="geometry">
            <mxPoint x="465" y="250" as="sourcePoint"/>
            <mxPoint x="465" y="230" as="targetPoint"/>
          </mxGeometry>
        </mxCell>
        <mxCell id="qk5S9nWQlCDxr0NH0Po0-53" value="" style="endArrow=none;html=1;entryX=0;entryY=1;entryDx=0;entryDy=0;exitX=1;exitY=0;exitDx=0;exitDy=0;" parent="1" source="qk5S9nWQlCDxr0NH0Po0-3" target="qk5S9nWQlCDxr0NH0Po0-47" edge="1">
          <mxGeometry width="50" height="50" relative="1" as="geometry">
            <mxPoint x="475" y="260" as="sourcePoint"/>
            <mxPoint x="475" y="240" as="targetPoint"/>
          </mxGeometry>
        </mxCell>
        <mxCell id="qk5S9nWQlCDxr0NH0Po0-54" value="" style="endArrow=none;html=1;entryX=0;entryY=1;entryDx=0;entryDy=0;" parent="1" target="qk5S9nWQlCDxr0NH0Po0-45" edge="1">
          <mxGeometry width="50" height="50" relative="1" as="geometry">
            <mxPoint x="435" y="158" as="sourcePoint"/>
            <mxPoint x="485" y="250" as="targetPoint"/>
          </mxGeometry>
        </mxCell>
        <mxCell id="qk5S9nWQlCDxr0NH0Po0-55" value="" style="endArrow=none;html=1;entryX=0.5;entryY=1;entryDx=0;entryDy=0;" parent="1" source="qk5S9nWQlCDxr0NH0Po0-3" target="qk5S9nWQlCDxr0NH0Po0-43" edge="1">
          <mxGeometry width="50" height="50" relative="1" as="geometry">
            <mxPoint x="495" y="280" as="sourcePoint"/>
            <mxPoint x="495" y="260" as="targetPoint"/>
          </mxGeometry>
        </mxCell>
        <mxCell id="qk5S9nWQlCDxr0NH0Po0-56" value="" style="endArrow=none;html=1;entryX=1;entryY=1;entryDx=0;entryDy=0;" parent="1" target="qk5S9nWQlCDxr0NH0Po0-42" edge="1">
          <mxGeometry width="50" height="50" relative="1" as="geometry">
            <mxPoint x="435" y="160" as="sourcePoint"/>
            <mxPoint x="505" y="270" as="targetPoint"/>
          </mxGeometry>
        </mxCell>
        <mxCell id="qk5S9nWQlCDxr0NH0Po0-57" value="" style="endArrow=none;html=1;entryX=1;entryY=1;entryDx=0;entryDy=0;exitX=0;exitY=0;exitDx=0;exitDy=0;" parent="1" source="qk5S9nWQlCDxr0NH0Po0-3" target="qk5S9nWQlCDxr0NH0Po0-40" edge="1">
          <mxGeometry width="50" height="50" relative="1" as="geometry">
            <mxPoint x="515" y="300" as="sourcePoint"/>
            <mxPoint x="515" y="280" as="targetPoint"/>
          </mxGeometry>
        </mxCell>
        <mxCell id="2MD7mv1ZxBUKlqD_YmNW-2" style="rounded=0;orthogonalLoop=1;jettySize=auto;html=1;exitX=1;exitY=0;exitDx=0;exitDy=0;entryX=0;entryY=1;entryDx=0;entryDy=0;endArrow=none;endFill=0;" edge="1" parent="1" source="2MD7mv1ZxBUKlqD_YmNW-1" target="qk5S9nWQlCDxr0NH0Po0-3">
          <mxGeometry relative="1" as="geometry"/>
        </mxCell>
        <mxCell id="2MD7mv1ZxBUKlqD_YmNW-1" value="书本种类" style="ellipse;whiteSpace=wrap;html=1;" vertex="1" parent="1">
          <mxGeometry x="310" y="210" width="75" height="50" as="geometry"/>
        </mxCell>
      </root>
    </mxGraphModel>
  </diagram>
</mxfile>
